<?xml version="1.0" encoding="utf-8"?>
<!-- Generator: Adobe Illustrator 21.1.0, SVG Export Plug-In . SVG Version: 6.00 Build 0)  -->
<svg version="1.1" id="Layer_1" xmlns="http://www.w3.org/2000/svg" xmlns:xlink="http://www.w3.org/1999/xlink" x="0px" y="0px"
	 viewBox="0 0 250 77.8" style="enable-background:new 0 0 250 77.8;" xml:space="preserve">
<style type="text/css">
	.st0{fill:#FFFFFF;}
	.st1{fill:#3777BC;}
	.st2{fill:#00A651;}
	.st3{fill:#ED1C24;}
	.st4{fill:#A2B0B9;}
</style>
<g>
	<path class="st0" d="M13.1,38.5V2H1.5v36.4v4.7c0,3.8,3.1,6.9,6.9,6.9h4.7h36.4v-5.8c0-3.2-2.6-5.8-5.8-5.8H13.1z"/>
	<path class="st0" d="M166.3,13.6V8c0-3.3-2.7-6-6-6h-30.4h-11.6v11.6v24.9v5.1c0,3.6,2.9,6.4,6.4,6.4h5.1h36.4V38.5h-36.4V13.6
		H166.3z"/>
	<path class="st0" d="M237.3,38.5h-24.8c0,0,0,0,0,0V13.6c0,0,0,0,0,0h24.8c0,0,0,0,0,0L237.3,38.5
		C237.3,38.5,237.3,38.5,237.3,38.5 M237.3,2h-24.9h-11.6c0,0,0,0,0,0v11.6v24.9V50c0,0,0,0,0,0h11.6h24.9c6.4,0,11.6-5.2,11.6-11.6
		V13.6C248.9,7.2,243.7,2,237.3,2"/>
	<path class="st0" d="M177.8,2h4.7c3.8,0,6.9,3.1,6.9,6.9v41.1h-11.6V2z"/>
	<path class="st0" d="M95.2,2v36.4H70.3V2H58.7v36.4v5.1c0,3.6,2.9,6.5,6.5,6.5h5.1h24.9h4.9c3.7,0,6.7-3,6.7-6.7v-4.9V2H95.2z"/>
	<rect x="77" y="2" class="st1" width="11.6" height="5.8"/>
	<rect x="77" y="13.6" class="st2" width="11.6" height="5.8"/>
	<rect x="77" y="25.1" class="st3" width="11.6" height="5.8"/>
	<polygon class="st4" points="18.8,62.8 14.7,72.5 10.6,62.8 8.9,62.8 14.1,74.9 15.2,74.9 20.4,62.8 	"/>
	<rect x="34.9" y="62.8" class="st4" width="1.6" height="12.1"/>
	<path class="st4" d="M51.5,73.7l0.4-1.5c0.7,0.8,1.9,1.7,3.7,1.7c1.4,0,2.5-0.8,2.5-2.1c0-1.2-0.6-1.9-2.9-2.5
		c-2.3-0.6-3.4-1.8-3.4-3.5c0-1.7,1.4-3.1,3.9-3.1c1.4,0,2.6,0.6,3.3,1.1L58.7,65c-0.8-0.6-1.9-1.1-2.9-1.1c-1.5,0-2.4,0.7-2.4,1.8
		c0,0.9,0.5,1.6,2.4,2.1c2.6,0.7,3.8,1.8,3.8,3.8c0,2.4-2,3.6-4.1,3.6C53.6,75.2,52.2,74.4,51.5,73.7"/>
	<rect x="74.6" y="62.8" class="st4" width="1.6" height="12.1"/>
	<path class="st4" d="M102.5,68.9c0-2.9-2-5-4.7-5c-2.8,0-4.8,2.1-4.8,5c0,2.9,2,5,4.8,5C100.5,73.9,102.5,71.8,102.5,68.9
		 M91.3,68.9c0-3.7,2.7-6.4,6.4-6.4c3.7,0,6.4,2.7,6.4,6.4s-2.7,6.4-6.4,6.4C94,75.3,91.3,72.6,91.3,68.9"/>
	<polygon class="st4" points="127.4,62.8 127.4,71.9 120.2,62.8 119.2,62.8 119.2,74.9 120.7,74.9 120.7,65.9 127.9,74.9 
		128.8,74.9 128.8,62.8 	"/>
	<polygon class="st4" points="161.5,62.8 161.5,74.9 168.8,74.9 168.8,73.6 163.1,73.6 163.1,62.8 	"/>
	<path class="st4" d="M187.8,65.3l2.1,5h-4.2L187.8,65.3z M187.4,62.8l-5.2,12.1h1.6l1.5-3.4h5.3l1.5,3.4h1.7l-5.2-12.1H187.4z"/>
	<path class="st4" d="M212.3,73.6c1.8,0,2.4-1.1,2.4-2.2c0-1.1-0.5-2.2-2.4-2.2h-2.6v4.4H212.3z M212.1,67.8c1.5,0,2-0.9,2-1.8
		c0-0.9-0.5-1.8-2-1.8h-2.4v3.7H212.1z M208.1,62.8h4c2.5,0,3.5,1.4,3.5,3.2c0,0.9-0.6,1.9-1.3,2.4c1.2,0.5,1.9,1.7,1.9,3
		c0,2-1.2,3.5-4,3.5h-4.2V62.8z"/>
	<path class="st4" d="M230.5,73.7l0.4-1.5c0.7,0.8,1.9,1.7,3.7,1.7c1.4,0,2.5-0.8,2.5-2.1c0-1.2-0.6-1.9-2.9-2.5
		c-2.3-0.6-3.4-1.8-3.4-3.5c0-1.7,1.4-3.1,3.9-3.1c1.4,0,2.6,0.6,3.3,1.1l-0.4,1.3c-0.8-0.6-1.9-1.1-2.9-1.1c-1.5,0-2.4,0.7-2.4,1.8
		c0,0.9,0.5,1.6,2.4,2.1c2.6,0.7,3.8,1.8,3.8,3.8c0,2.4-2,3.6-4.1,3.6C232.6,75.2,231.2,74.4,230.5,73.7"/>
</g>
</svg>
